<svg version="1.1" xmlns="http://www.w3.org/2000/svg" xmlns:xlink="http://www.w3.org/1999/xlink" width="107.5" height="104" viewBox="0,0,107.5,104"><g transform="translate(-488,-908)"><g data-paper-data="{&quot;isPaintingLayer&quot;:true}" fill="#ffffff" fill-rule="nonzero" stroke-linecap="butt" stroke-linejoin="miter" stroke-miterlimit="10" stroke-dasharray="" stroke-dashoffset="0" style="mix-blend-mode: normal"><path d="M490,960c0,-27.61424 22.38576,-50 50,-50c27.61424,0 50,22.38576 50,50c0,27.61424 -22.38576,50 -50,50c-27.61424,0 -50,-22.38576 -50,-50z" stroke="#a900ff" stroke-width="4"/><path d="M591.38994,943.26412l0.96332,2.88995c0.09499,0.2642 0.14675,0.54902 0.14675,0.84593c0,0.81792 -0.39279,1.5441 -1.00003,2.0002c-0.09047,0.64532 -0.01396,1.2723 0.17694,1.88248l2.79981,2.09986c0.62044,0.45492 1.02328,1.18914 1.02328,2.01746c0,1.38071 -1.11929,2.5 -2.5,2.5c-0.29691,0 -0.58173,-0.05176 -0.84593,-0.14675l-2.94464,-0.98155l0.17964,-0.53891l-0.0152,-0.00085c-0.33111,0.99278 -1.26803,1.70849 -2.37211,1.70849c-0.83599,0 -1.57615,-0.41034 -2.03004,-1.04059c-1.08004,-0.01197 -1.99567,-0.70881 -2.33304,-1.67668l-0.23799,-0.63464l-1.73429,1.6751c0,0 -1.86362,1.66641 -3.53003,-0.19721c-1.66641,-1.86362 0.19721,-3.53003 0.19721,-3.53003l1.7553,-1.36662c0.05945,-0.564 0.10681,-1.14075 0.14655,-1.7266c-1.00313,-0.32514 -1.72846,-1.26721 -1.72846,-2.37867c0,-0.02024 0.00024,-0.04043 0.00072,-0.06055l0.10392,-4.99041l0.02603,0.00054l-0.0232,-0.07828c0.00908,-0.02526 0.01816,-0.05052 0.02723,-0.07578l-0.02199,-0.00183l0.41283,-4.95922c0.01054,-0.14506 0.03347,-0.28669 0.06771,-0.42383l-0.42612,-1.15661c-0.11238,-0.28434 -0.17413,-0.59421 -0.17413,-0.9185c0,-0.35502 0.074,-0.69275 0.20742,-0.99861l-0.94263,-1.88164c0,0 -1.11975,-2.23521 1.11546,-3.35496c1.18921,-0.59575 2.06267,-0.24183 2.61975,0.21986c0,-0.54375 0,-0.98466 0,-0.98466c0,-1.38071 1.11929,-2.5 2.5,-2.5c1.20127,0 2.20466,0.84727 2.44517,1.97681l1.13357,4.81767c0.17629,0.40958 0.33289,0.82565 0.47373,1.24693c0.01403,-0.00023 0.02809,-0.00035 0.04218,-0.00035c1.31307,0 2.3897,1.0123 2.49204,2.29905l0.45037,4.95408c0.06307,0.69761 0.19101,1.39671 0.30384,2.09546c0.4957,0.31562 0.87271,0.8011 1.04904,1.37447z" stroke="none" stroke-width="0.5"/></g></g></svg>