<svg version="1.1" xmlns="http://www.w3.org/2000/svg" xmlns:xlink="http://www.w3.org/1999/xlink" width="763" height="953.5535" viewBox="0,0,763,953.5535"><defs><linearGradient x1="158.5" y1="1379.93684" x2="921.5" y2="1379.93684" gradientUnits="userSpaceOnUse" id="color-1"><stop offset="0" stop-color="#9500ff"/><stop offset="1" stop-color="#ae00ff"/></linearGradient></defs><g transform="translate(-158.5,-899.32018)"><g data-paper-data="{&quot;isPaintingLayer&quot;:true}" fill-rule="nonzero" stroke="none" stroke-linecap="butt" stroke-linejoin="miter" stroke-miterlimit="10" stroke-dasharray="" stroke-dashoffset="0" style="mix-blend-mode: normal"><path d="M158.5,1852.87368v-945.87368h763v945.87368z" fill="url(#color-1)" stroke-width="0"/><text transform="translate(387.249,981.90362) scale(1.89847,1.89847)" font-size="40" xml:space="preserve" fill="#ffffff" fill-rule="nonzero" stroke="none" stroke-width="1" stroke-linecap="butt" stroke-linejoin="miter" stroke-miterlimit="10" stroke-dasharray="" stroke-dashoffset="0" font-family="Sans Serif" font-weight="normal" text-anchor="start" style="mix-blend-mode: normal"><tspan x="0" dy="0">CREDITS</tspan></text><text transform="translate(194.06842,1074.66197) scale(0.98853,0.98853)" font-size="40" xml:space="preserve" fill="#ffffff" fill-rule="nonzero" stroke="none" stroke-width="1" stroke-linecap="butt" stroke-linejoin="miter" stroke-miterlimit="10" stroke-dasharray="" stroke-dashoffset="0" font-family="Sans Serif" font-weight="normal" text-anchor="start" style="mix-blend-mode: normal"><tspan x="0" dy="0">Jab pata hai ki ye app Vedansh Khare</tspan><tspan x="0" dy="46.150000000000006px">ne banaya hai to ye tab khola hi kyu</tspan><tspan x="0" dy="46.150000000000006px">lekin ab khol hi liya hai to sun lo is</tspan><tspan x="0" dy="46.150000000000006px">app mai sab kuch Vedansh Khare ne</tspan><tspan x="0" dy="46.150000000000006px">hi banaya hai</tspan></text><path d="M345.36363,1363.66238c5.78302,1.99393 3.76147,12.1199 -0.34932,15.74331c-2.07588,4.943 -4.68423,4.23112 -8.08034,0.6456c-1.32474,-1.39863 -1.89971,-3.35195 -2.84956,-5.02793c-0.45101,-2.0485 -1.71883,-4.08008 -1.35303,-6.1455c0.66334,-3.74539 3.49397,-7.13093 7.40776,-7.26827c1.58184,-0.05551 3.62442,-0.13032 4.61905,1.10095c0.23873,0.29553 0.43827,0.61468 0.60543,0.95184z" fill="#ffffff" stroke-width="0.5"/><path d="M486.09097,1368.20214c0.04861,-0.38946 0.10131,-0.75762 0.15287,-1.09677c0.33381,-2.19584 -0.22767,-4.89821 1.26625,-6.54179c0.9955,-1.09523 2.73017,-0.8935 4.32615,-0.84387c0.16449,-0.13436 0.33627,-0.26947 0.5157,-0.40548c1.0022,-0.75973 2.50748,-0.19721 3.76122,-0.29581c0,0 0.53172,0 1.10472,0.24522c0.65179,0.0219 1.2811,0.13996 1.86661,0.42901c5.25484,2.59421 4.81673,6.03326 4.69182,10.59419c-0.05912,2.15885 0.58715,4.5796 -0.47189,6.46178c-0.75999,1.35069 -2.77726,1.39495 -4.23886,1.91037c-1.93862,0.68364 -3.92162,2.09448 -5.93444,1.67715c-2.70574,-0.561 -4.1187,-1.49135 -4.82511,-2.70978c-2.27919,-1.59948 -2.56505,-4.94846 -2.37294,-7.80681c-0.07192,-0.47727 -0.05048,-0.94823 0.08301,-1.40287c0.02167,-0.0738 0.04669,-0.14529 0.07488,-0.21454zM498.07985,1364.84226c0.07366,0.14185 0.14966,0.27934 0.22894,0.41079l0.07669,-0.07669c-0.08871,-0.11824 -0.19007,-0.22997 -0.30563,-0.3341zM493.93688,1372.70107c0.00595,-0.37182 -0.03019,-0.76065 -0.04937,-1.13642c-0.15449,-0.04175 -0.30876,-0.08416 -0.46265,-0.12768l-0.09096,0.26945c-0.01278,0.04099 -0.02658,0.08152 -0.04137,0.12158c0.21699,0.37159 0.42454,0.72578 0.64435,0.87307z" fill="#ffffff" stroke-width="0.5"/><path d="M498.69474,1458.83947c2.5,0 2.5,2.5 2.5,2.5l-0.06688,4.87701c-4.755,9.66913 -14.83341,15.14025 -23.85104,20.51526c-7.12545,4.24716 -14.20224,9.29609 -21.66845,12.90168c-4.49061,2.16861 -9.56154,3.63504 -14.22689,5.40368c-0.35546,0.13476 -9.44554,3.58692 -9.63788,3.63438c-4.79563,1.1834 -10.27727,1.27316 -15.18535,1.87246c-8.37644,1.0152 -17.16383,1.20245 -25.48173,-0.25731c-0.63578,-0.11158 -10.00936,-1.75071 -10.34378,-1.87939c-4.24809,-1.63464 -8.58369,-5.71192 -11.96853,-8.64953c-3.78925,-3.28859 -7.87256,-6.57746 -11.30521,-10.24346c-2.27286,-2.42737 -3.97624,-5.35217 -6.27229,-7.75762c-3.44193,-3.60595 -7.14493,-5.31237 -8.89791,-10.16081c0,0 -0.79057,-2.37171 1.58114,-3.16228c2.37171,-0.79057 3.16228,1.58114 3.16228,1.58114c1.10877,3.84257 5.08332,5.47352 7.77133,8.28963c1.19792,1.255 2.18841,2.69277 3.27973,4.0415c4.13611,5.11171 9.00292,9.32658 13.96002,13.63731c2.95578,2.57037 6.8269,6.36575 10.55026,7.7833c2.95544,1.12519 6.23817,1.04366 9.35189,1.59631c7.81623,1.3873 16.13429,1.18697 24.00677,0.21809c4.70772,-0.57484 9.99221,-0.62827 14.59347,-1.76371c3.13906,-0.77462 6.04009,-2.30918 9.06336,-3.45531c4.52859,-1.7168 9.46546,-3.12555 13.82497,-5.23085c7.33288,-3.5412 14.28327,-8.52385 21.28318,-12.69437c7.467,-4.44882 17.43946,-9.38353 21.5444,-17.36886l-0.06688,-3.72825c0,0 0,-2.5 2.5,-2.5z" fill="#ffffff" stroke-width="0.5"/></g></g></svg>